<?xml version="1.0" encoding="UTF-8"?>
<!DOCTYPE svg PUBLIC "-//W3C//DTD SVG 1.1//EN" "http://www.w3.org/Graphics/SVG/1.1/DTD/svg11.dtd">
<svg version="1.1" xmlns="http://www.w3.org/2000/svg" xmlns:xlink="http://www.w3.org/1999/xlink" x="0" y="0" width="263.1" height="69" viewBox="0, 0, 263.1, 69">
  <g id="twtxt" transform="translate(-317.9, -315)">
    <path d="M341.3,315 L341.3,332.2 L353.5,332.2 L353.5,332.2 L373.2,332.2 L382.4,368.5 L383.7,368.5 L394.6,332.2 L410.4,332.2 L421.3,368.5 L422.7,368.5 L431.7,332.2 L450.3,332.2 L450.3,332.2 L457.1,332.2 L465.5,315 L475.3,315 L475.3,332.2 L489.9,332.2 L489.9,332.2 L509.3,332.2 L516.6,352.5 L517.8,352.5 L524.2,332.2 L543.3,332.2 L543.3,332.2 L551.9,332.2 L560.3,315 L570.1,315 L570.1,332.2 L581,332.2 L581,344 L570.1,344 L570.1,372.3 L581,372.3 L581,384 L563.4,384 Q557.6,384 554.75,381.4 Q551.9,378.8 551.9,372.1 L551.9,344 L538.887,344 L533.8,357.6 L545,384 L524.1,384 L516.8,363.5 L515.6,363.5 L507.2,384 L487.6,384 L500,357.6 L494.592,344 L475.3,344 L475.3,372.3 L486.2,372.3 L486.2,384 L468.6,384 Q462.8,384 459.95,381.4 Q457.1,378.8 457.1,372.1 L457.1,344 L446.45,344 L433.4,384 L412.1,384 L402.4,352.1 L401.4,352.1 L391.6,384 L370.4,384 L357.35,344 L341.3,344 L341.3,372.3 L352.2,372.3 L352.2,384 L334.6,384 Q328.8,384 325.95,381.4 Q323.1,378.8 323.1,372.1 L323.1,344 L317.9,344 L317.9,332.2 L323.1,332.2 L331.5,315 L341.3,315 z" fill="#000000"/>
  </g>
</svg>
